<svg width="24" height="24" viewBox="0 0 24 24" fill="none" xmlns="http://www.w3.org/2000/svg">
<path d="M10.406 14.6314C10.489 14.7884 10.6521 14.8868 10.8302 14.8868H12.3059L11.1129 16.8022C10.9727 17.0272 11.0416 17.3229 11.2666 17.4631C11.4908 17.6032 11.7874 17.5348 11.9276 17.3093L13.5776 14.6604C13.6699 14.5128 13.6746 14.3262 13.5898 14.1739C13.5054 14.0215 13.3446 13.9268 13.1702 13.9268H11.7382L12.8201 12.3401C12.9696 12.1212 12.9129 11.8222 12.694 11.6731C12.4746 11.5245 12.1765 11.5798 12.0269 11.7992L10.4337 14.1364C10.3333 14.2836 10.3226 14.4739 10.406 14.6314Z" fill="white"/>
<path d="M13.3038 2.57558C13.0315 2.10449 12.5444 1.82324 12.0002 1.82324C11.4555 1.82324 10.9685 2.10449 10.6966 2.57558L0.683186 19.9193C0.411309 20.3904 0.411309 20.9529 0.683186 21.424C0.955063 21.8956 1.44256 22.1768 1.98678 22.1768H22.0132C23.1714 22.1768 23.8964 20.9237 23.3168 19.9193L13.3038 2.57558ZM22.0132 21.2168H1.98678C1.56658 21.2168 1.30457 20.7635 1.51475 20.3993L11.5282 3.05558C11.6702 2.80949 11.9055 2.78324 12.0002 2.78324C12.0949 2.78324 12.3302 2.80949 12.4722 3.05558L22.4852 20.3993C22.6953 20.7633 22.4337 21.2168 22.0132 21.2168Z" fill="white"/>
<path d="M12.416 5.13866C12.2445 4.84147 11.756 4.84147 11.5845 5.13866L3.34666 19.4065C3.16264 19.7253 3.39211 20.1265 3.76244 20.1265H20.2376C20.2409 20.1269 20.2446 20.1269 20.247 20.1265C20.5123 20.1265 20.727 19.9118 20.727 19.6465C20.727 19.5269 20.6834 19.4177 20.6112 19.3334L12.416 5.13866ZM4.59401 19.1665L12.0003 6.33866L19.406 19.1665H4.59401Z" fill="white"/>
</svg>
