<svg width="24" height="24" viewBox="0 0 24 24" fill="none" xmlns="http://www.w3.org/2000/svg">
<path d="M5.05501 3.24569C4.98914 3.17144 4.9092 3.11101 4.81981 3.06789C4.73041 3.02477 4.63335 2.99982 4.53425 2.99449C4.43514 2.98916 4.33597 3.00355 4.24246 3.03683C4.14896 3.07011 4.063 3.12162 3.98955 3.18837C3.9161 3.25512 3.85663 3.33578 3.81458 3.42568C3.77254 3.51559 3.74876 3.61294 3.74461 3.7121C3.74047 3.81126 3.75605 3.91026 3.79045 4.00336C3.82485 4.09645 3.87738 4.18179 3.94501 4.25444L5.74876 6.23913C2.34376 8.32881 0.879381 11.5501 0.814694 11.6963C0.77205 11.7922 0.750015 11.896 0.750015 12.001C0.750015 12.106 0.77205 12.2098 0.814694 12.3057C0.847506 12.3797 1.64157 14.1404 3.40688 15.9057C5.75907 18.2569 8.73001 19.5001 12 19.5001C13.6806 19.5096 15.3442 19.1636 16.8816 18.4848L18.9441 20.7544C19.0099 20.8287 19.0899 20.8891 19.1793 20.9322C19.2687 20.9754 19.3657 21.0003 19.4648 21.0056C19.5639 21.011 19.6631 20.9966 19.7566 20.9633C19.8501 20.93 19.9361 20.8785 20.0095 20.8118C20.083 20.745 20.1424 20.6643 20.1845 20.5744C20.2265 20.4845 20.2503 20.3872 20.2545 20.288C20.2586 20.1889 20.243 20.0899 20.2086 19.9968C20.1742 19.9037 20.1217 19.8183 20.0541 19.7457L5.05501 3.24569ZM9.49219 10.3557L13.3988 14.6541C12.8105 14.9636 12.1361 15.069 11.4814 14.9536C10.8268 14.8382 10.229 14.5087 9.7819 14.0168C9.33482 13.5249 9.06379 12.8984 9.01135 12.2358C8.95892 11.5731 9.12805 10.9118 9.49219 10.3557ZM12 18.0001C9.11438 18.0001 6.59344 16.951 4.50657 14.8829C3.64999 14.0316 2.92146 13.0606 2.34376 12.0001C2.78344 11.176 4.18688 8.86975 6.78282 7.37069L8.47032 9.22225C7.81701 10.059 7.48054 11.0997 7.52038 12.1605C7.56022 13.2214 7.97381 14.2339 8.68804 15.0193C9.40227 15.8047 10.3712 16.3122 11.4234 16.4523C12.4757 16.5924 13.5436 16.3559 14.4384 15.7847L15.8194 17.3035C14.6006 17.7711 13.3054 18.0073 12 18.0001ZM12.5625 9.0535C12.3671 9.0162 12.1945 8.9028 12.0826 8.73824C11.9708 8.57367 11.929 8.37143 11.9663 8.176C12.0036 7.98057 12.117 7.80796 12.2815 7.69614C12.4461 7.58432 12.6483 7.54245 12.8438 7.57975C13.7996 7.76506 14.67 8.25442 15.325 8.97483C15.9801 9.69524 16.3846 10.6081 16.4784 11.5773C16.497 11.7753 16.4361 11.9726 16.3091 12.1257C16.1822 12.2788 15.9996 12.3753 15.8016 12.3938C15.7782 12.3952 15.7547 12.3952 15.7313 12.3938C15.5438 12.3946 15.3628 12.3252 15.224 12.1992C15.0852 12.0732 14.9986 11.8998 14.9813 11.7132C14.9181 11.0686 14.6486 10.4615 14.2129 9.98232C13.7771 9.50313 13.1983 9.17738 12.5625 9.0535ZM23.1825 12.3057C23.1431 12.3938 22.1934 14.4966 20.055 16.4119C19.9819 16.4795 19.8962 16.5318 19.8027 16.5658C19.7092 16.5999 19.6099 16.615 19.5105 16.6103C19.4111 16.6056 19.3136 16.5812 19.2238 16.5384C19.134 16.4957 19.0535 16.4355 18.9871 16.3614C18.9208 16.2872 18.8698 16.2006 18.8373 16.1066C18.8047 16.0126 18.7912 15.913 18.7975 15.8138C18.8038 15.7145 18.8297 15.6174 18.8739 15.5282C18.9181 15.4391 18.9795 15.3596 19.0547 15.2944C20.1038 14.3519 20.9851 13.2379 21.6609 12.0001C21.082 10.9386 20.3518 9.96689 19.4934 9.11538C17.4066 7.04913 14.8856 6.00006 12 6.00006C11.392 5.99932 10.785 6.04855 10.185 6.14725C10.0874 6.1645 9.98743 6.16226 9.89074 6.14064C9.79405 6.11902 9.7026 6.07845 9.62168 6.02129C9.54076 5.96413 9.47196 5.8915 9.41927 5.8076C9.36658 5.72369 9.33103 5.63018 9.31468 5.53247C9.29833 5.43475 9.30151 5.33476 9.32402 5.23827C9.34654 5.14179 9.38795 5.05072 9.44586 4.97033C9.50377 4.88994 9.57703 4.82182 9.66142 4.76991C9.7458 4.718 9.83964 4.68332 9.93751 4.66788C10.6192 4.55531 11.3091 4.49919 12 4.50006C15.27 4.50006 18.2409 5.74319 20.5931 8.09538C22.3584 9.86069 23.1525 11.6223 23.1853 11.6963C23.228 11.7922 23.25 11.896 23.25 12.001C23.25 12.106 23.228 12.2098 23.1853 12.3057H23.1825Z" fill="black"/>
</svg>
