<svg width="24" height="24" viewBox="0 0 24 24" fill="none" xmlns="http://www.w3.org/2000/svg">
<path d="M22.488 5.06399L12.168 1.22399C12.072 1.17599 11.952 1.17599 11.832 1.22399L1.51198 5.06399C1.31998 5.13599 1.19998 5.32799 1.19998 5.51999V22.32C1.19998 22.584 1.41598 22.8 1.67998 22.8H22.32C22.584 22.8 22.8 22.584 22.8 22.32V5.51999C22.8 5.32799 22.68 5.13599 22.488 5.06399ZM4.55998 15.6H19.44V17.04H4.55998V15.6ZM19.44 14.64H4.55998V13.2H19.44V14.64ZM4.55998 18H19.44V19.44H4.55998V18ZM19.44 12.24H4.55998V10.8H19.44V12.24ZM4.55998 21.84V20.4H19.44V21.84H4.55998ZM21.84 21.84H20.4V10.32C20.4 10.056 20.184 9.83999 19.92 9.83999H4.07998C3.81598 9.83999 3.59998 10.056 3.59998 10.32V21.84H2.15998V5.85599L12 2.18399L21.84 5.85599V21.84Z" fill="white"/>
</svg>
