<svg width="24" height="24" viewBox="0 0 24 24" fill="none" xmlns="http://www.w3.org/2000/svg">
<path d="M4.62749 22.3875C4.26196 22.3634 3.9208 22.1957 3.67843 21.921C3.43606 21.6463 3.31216 21.2869 3.33374 20.9212C3.33374 20.1337 3.77624 19.4212 4.31999 18.6187C4.3543 18.5677 4.40063 18.5258 4.45491 18.4969C4.50918 18.468 4.56974 18.4529 4.63124 18.4529C4.69274 18.4529 4.7533 18.468 4.80758 18.4969C4.86186 18.5258 4.90819 18.5677 4.94249 18.6187C5.49374 19.4437 5.92124 20.145 5.92124 20.9212C5.94283 21.2869 5.81892 21.6463 5.57655 21.921C5.33418 22.1957 4.99302 22.3634 4.62749 22.3875Z" stroke="white" stroke-width="1.125" stroke-miterlimit="10"/>
<path d="M15.5962 3.76514H12.4462V6.46889H15.5962V3.76514Z" stroke="white" stroke-width="1.125" stroke-linecap="round" stroke-linejoin="round"/>
<path d="M15.675 13.1251H12.375C11.9923 13.1258 11.6238 12.9802 11.3449 12.718C11.0661 12.4559 10.898 12.0971 10.875 11.7151C10.8731 11.6851 10.8731 11.6551 10.875 11.6251V7.96884C10.873 7.93762 10.873 7.90631 10.875 7.87509C10.898 7.49307 11.0661 7.13427 11.3449 6.87215C11.6238 6.61002 11.9923 6.4644 12.375 6.46509H15.675C16.0577 6.4644 16.4262 6.61002 16.7051 6.87215C16.9839 7.13427 17.152 7.49307 17.175 7.87509C17.175 7.90509 17.175 7.93509 17.175 7.96509V11.6251C17.175 11.6551 17.175 11.6851 17.175 11.7151C17.152 12.0971 16.9839 12.4559 16.7051 12.718C16.4262 12.9802 16.0577 13.1258 15.675 13.1251Z" stroke="white" stroke-width="1.125" stroke-linecap="round" stroke-linejoin="round"/>
<path d="M17.1712 7.875C17.1712 7.905 17.1712 7.935 17.1712 7.965V11.625C17.1712 11.655 17.1712 11.685 17.1712 11.715H20.9212C21.0207 11.715 21.1161 11.6755 21.1864 11.6052C21.2567 11.5348 21.2962 11.4395 21.2962 11.34V8.25C21.2962 8.15054 21.2567 8.05516 21.1864 7.98483C21.1161 7.91451 21.0207 7.875 20.9212 7.875H17.1712ZM10.875 11.7113C10.8733 11.6825 10.8733 11.6537 10.875 11.625V7.96875C10.873 7.93753 10.873 7.90622 10.875 7.875H6.56249C6.05643 7.875 5.55532 7.97474 5.08782 8.16852C4.62032 8.3623 4.19559 8.64631 3.83792 9.00433C3.48025 9.36235 3.19665 9.78735 3.00333 10.255C2.81 10.7227 2.71075 11.2239 2.71124 11.73V15.9713C2.71124 16.0707 2.75075 16.1661 2.82108 16.2364C2.89141 16.3067 2.98679 16.3463 3.08624 16.3463H6.16875C6.2682 16.3463 6.36358 16.3067 6.43391 16.2364C6.50424 16.1661 6.54375 16.0707 6.54375 15.9713V12.75C6.54375 12.4705 6.65476 12.2025 6.85238 12.0049C7.05 11.8073 7.31802 11.6963 7.5975 11.6963H10.875V11.7113Z" stroke="white" stroke-width="1.125" stroke-linecap="round" stroke-linejoin="round"/>
<path d="M9.71251 2.68139V2.69264C9.71251 3.28496 10.1927 3.76514 10.785 3.76514L17.265 3.76514C17.8573 3.76514 18.3375 3.28496 18.3375 2.69264V2.68139C18.3375 2.08906 17.8573 1.60889 17.265 1.60889L10.785 1.60889C10.1927 1.60889 9.71251 2.08906 9.71251 2.68139Z" stroke="white" stroke-width="1.125" stroke-linecap="round" stroke-linejoin="round"/>
</svg>
