<svg width="24" height="34" viewBox="0 0 24 34" fill="none" xmlns="http://www.w3.org/2000/svg">
<g clip-path="url(#clip0_92_2009)">
<path fill-rule="evenodd" clip-rule="evenodd" d="M11.3869 33.0397C11.9402 33.0397 21.826 22.4773 21.826 16.712C21.826 10.9467 17.1522 6.27295 11.3869 6.27295C5.62164 6.27295 0.947937 10.9467 0.947937 16.712C0.947937 22.4773 10.8337 33.0397 11.3869 33.0397ZM11.387 21.9332C14.31 21.9332 16.6796 19.5636 16.6796 16.6406C16.6796 13.7176 14.31 11.348 11.387 11.348C8.46396 11.348 6.09439 13.7176 6.09439 16.6406C6.09439 19.5636 8.46396 21.9332 11.387 21.9332Z" fill="#EF1D2F"/>
<path fill-rule="evenodd" clip-rule="evenodd" d="M0.947937 16.712C0.947937 22.4773 10.8337 33.0397 11.3869 33.0397V21.9332C8.46394 21.9331 6.09439 19.5636 6.09439 16.6406C6.09439 13.7176 8.46394 11.348 11.3869 11.348V6.27295C5.62164 6.27295 0.947937 10.9467 0.947937 16.712Z" fill="#FF3E4E"/>
</g>
<defs>
<clipPath id="clip0_92_2009">
<rect width="22.4" height="28" fill="white" transform="translate(0.799927 6)"/>
</clipPath>
</defs>
</svg>
