<svg width="24" height="24" viewBox="0 0 24 24" fill="none" xmlns="http://www.w3.org/2000/svg">
<path d="M4.5015 22.875C4.39327 22.8752 4.28628 22.8519 4.18789 22.8068C4.08949 22.7618 4.00202 22.6959 3.93148 22.6138C3.86093 22.5317 3.80899 22.4354 3.77922 22.3313C3.74945 22.2272 3.74255 22.118 3.759 22.011L6.759 2.511C6.79399 2.31881 6.90259 2.14785 7.06169 2.0345C7.22079 1.92115 7.41784 1.87434 7.61092 1.90405C7.804 1.93375 7.97787 2.03762 8.09554 2.19355C8.21322 2.34949 8.2654 2.54518 8.241 2.739L5.241 22.239C5.21382 22.4158 5.12436 22.577 4.98876 22.6936C4.85316 22.8102 4.68035 22.8746 4.5015 22.875ZM19.4985 22.875C19.3197 22.8746 19.1468 22.8102 19.0112 22.6936C18.8757 22.577 18.7862 22.4158 18.759 22.239L15.759 2.739C15.7346 2.54518 15.7868 2.34949 15.9045 2.19355C16.0221 2.03762 16.196 1.93375 16.3891 1.90405C16.5822 1.87434 16.7792 1.92115 16.9383 2.0345C17.0974 2.14785 17.206 2.31881 17.241 2.511L20.241 22.011C20.2575 22.118 20.2506 22.2272 20.2208 22.3313C20.191 22.4354 20.1391 22.5317 20.0685 22.6138C19.998 22.6959 19.9105 22.7618 19.8121 22.8068C19.7137 22.8519 19.6067 22.8752 19.4985 22.875ZM11.25 2.625C11.25 2.42609 11.329 2.23532 11.4697 2.09467C11.6103 1.95402 11.8011 1.875 12 1.875C12.1989 1.875 12.3897 1.95402 12.5303 2.09467C12.671 2.23532 12.75 2.42609 12.75 2.625V4.125C12.75 4.32391 12.671 4.51468 12.5303 4.65533C12.3897 4.79598 12.1989 4.875 12 4.875C11.8011 4.875 11.6103 4.79598 11.4697 4.65533C11.329 4.51468 11.25 4.32391 11.25 4.125V2.625ZM11.25 7.125C11.25 6.92609 11.329 6.73532 11.4697 6.59467C11.6103 6.45402 11.8011 6.375 12 6.375C12.1989 6.375 12.3897 6.45402 12.5303 6.59467C12.671 6.73532 12.75 6.92609 12.75 7.125V8.625C12.75 8.82391 12.671 9.01468 12.5303 9.15533C12.3897 9.29598 12.1989 9.375 12 9.375C11.8011 9.375 11.6103 9.29598 11.4697 9.15533C11.329 9.01468 11.25 8.82391 11.25 8.625V7.125ZM11.25 11.625C11.25 11.4261 11.329 11.2353 11.4697 11.0947C11.6103 10.954 11.8011 10.875 12 10.875C12.1989 10.875 12.3897 10.954 12.5303 11.0947C12.671 11.2353 12.75 11.4261 12.75 11.625V13.125C12.75 13.3239 12.671 13.5147 12.5303 13.6553C12.3897 13.796 12.1989 13.875 12 13.875C11.8011 13.875 11.6103 13.796 11.4697 13.6553C11.329 13.5147 11.25 13.3239 11.25 13.125V11.625ZM11.25 16.125C11.25 15.9261 11.329 15.7353 11.4697 15.5947C11.6103 15.454 11.8011 15.375 12 15.375C12.1989 15.375 12.3897 15.454 12.5303 15.5947C12.671 15.7353 12.75 15.9261 12.75 16.125V17.625C12.75 17.8239 12.671 18.0147 12.5303 18.1553C12.3897 18.296 12.1989 18.375 12 18.375C11.8011 18.375 11.6103 18.296 11.4697 18.1553C11.329 18.0147 11.25 17.8239 11.25 17.625V16.125ZM11.25 20.25C11.25 20.0511 11.329 19.8603 11.4697 19.7197C11.6103 19.579 11.8011 19.5 12 19.5C12.1989 19.5 12.3897 19.579 12.5303 19.7197C12.671 19.8603 12.75 20.0511 12.75 20.25V21.75C12.75 21.9489 12.671 22.1397 12.5303 22.2803C12.3897 22.421 12.1989 22.5 12 22.5C11.8011 22.5 11.6103 22.421 11.4697 22.2803C11.329 22.1397 11.25 21.9489 11.25 21.75V20.25Z" fill="white"/>
</svg>
