<svg width="24" height="24" viewBox="0 0 24 24" fill="none" xmlns="http://www.w3.org/2000/svg">
<path d="M11.52 14.16L16.2 18.84C16.68 19.32 17.4 19.32 17.88 18.84C18.36 18.36 18.36 17.64 17.88 17.16L13.2 12.48M11.52 10.68L9.48 8.64002L7.8 10.32L9.84 12.48M10.44 7.68002L6.72 11.28C6.36 11.64 5.76 11.64 5.28 11.28L5.04 11.04C4.92 10.8 4.8 10.56 4.8 10.32V8.64002C4.8 8.40002 4.92 8.16002 5.04 7.92002L7.92 5.04002C8.28 4.68002 8.88 4.68002 9.36 5.04002L10.56 6.24002C10.8 6.60002 10.8 7.20002 10.44 7.68002ZM5.52 15.12C4.56 16.08 4.56 17.52 5.52 18.48C6.48 19.44 7.92 19.44 8.88 18.48C9.84 17.52 9.84 16.08 8.88 15.12C7.92 14.16 6.48 14.16 5.52 15.12Z" stroke="white" stroke-width="0.8" stroke-miterlimit="10"/>
<path d="M19.2 7.07993C19.2 6.71993 19.08 6.35993 18.96 5.99993L17.64 7.31993H16.44V6.23993L17.76 4.91993C17.52 4.79993 17.16 4.67993 16.8 4.67993C15.48 4.67993 14.4 5.75993 14.4 7.07993C14.4 8.39993 15.48 9.47993 16.8 9.47993C18.12 9.47993 19.2 8.39993 19.2 7.07993Z" stroke="white" stroke-width="0.8" stroke-miterlimit="10" stroke-linecap="round" stroke-linejoin="round"/>
<path d="M14.52 7.80005L7.8 14.52C8.16 14.64 8.52 14.88 8.88 15.12C9.24 15.36 9.36 15.84 9.48 16.2L16.08 9.60005L16.2 9.48005C15.48 9.24005 14.76 8.64005 14.52 7.80005Z" stroke="white" stroke-width="0.8" stroke-miterlimit="10"/>
<path d="M7.2 17.5201C7.59764 17.5201 7.92 17.1977 7.92 16.8001C7.92 16.4024 7.59764 16.0801 7.2 16.0801C6.80235 16.0801 6.48 16.4024 6.48 16.8001C6.48 17.1977 6.80235 17.5201 7.2 17.5201Z" fill="white"/>
</svg>
