<svg width="24" height="24" viewBox="0 0 24 24" fill="none" xmlns="http://www.w3.org/2000/svg">
<path d="M22.5 13.8749H12.375V12.0149L18.375 5.08301V7.92814C18.104 7.99875 17.8583 8.14393 17.6657 8.34718C17.4731 8.55044 17.3414 8.80362 17.2854 9.07799C17.2295 9.35235 17.2516 9.63691 17.3493 9.89934C17.4469 10.1618 17.6162 10.3916 17.8379 10.5626C18.0596 10.7337 18.3248 10.8391 18.6034 10.867C18.882 10.8949 19.1629 10.8442 19.4141 10.7205C19.6653 10.5968 19.8768 10.4051 20.0246 10.1673C20.1723 9.92941 20.2504 9.6549 20.25 9.37489C20.25 9.27543 20.2105 9.18005 20.1402 9.10972C20.0698 9.03939 19.9745 8.99989 19.875 8.99989C19.7755 8.99989 19.6802 9.03939 19.6098 9.10972C19.5395 9.18005 19.5 9.27543 19.5 9.37489C19.5 9.52322 19.456 9.66823 19.3736 9.79156C19.2912 9.9149 19.1741 10.011 19.037 10.0678C18.9 10.1246 18.7492 10.1394 18.6037 10.1105C18.4582 10.0815 18.3246 10.0101 18.2197 9.90522C18.1148 9.80033 18.0434 9.66669 18.0144 9.5212C17.9855 9.37572 18.0003 9.22492 18.0571 9.08787C18.1139 8.95083 18.21 8.83369 18.3333 8.75128C18.4567 8.66887 18.6017 8.62489 18.75 8.62489C18.8495 8.62489 18.9448 8.58538 19.0152 8.51505C19.0855 8.44473 19.125 8.34934 19.125 8.24989V4.12489C19.1229 4.10984 19.1199 4.09493 19.116 4.08026C19.1303 3.99462 19.1242 3.9068 19.0981 3.82398C19.072 3.74115 19.0268 3.66565 18.966 3.60364L18.1463 2.78464C18.0461 2.68448 17.9118 2.62579 17.7703 2.6203C17.6288 2.6148 17.4904 2.66291 17.3828 2.75501L9.66975 9.43001C9.28071 9.50878 8.91992 9.69047 8.625 9.95614V7.49989C8.625 7.30097 8.54598 7.11021 8.40533 6.96956C8.26468 6.8289 8.07391 6.74989 7.875 6.74989H3.2415C3.09746 6.74989 2.95646 6.79137 2.83536 6.86937C2.71426 6.94738 2.61819 7.05861 2.55863 7.18976L0.817877 11.0196C0.772912 11.1174 0.749752 11.2237 0.750002 11.3313V16.1249C0.750002 16.3238 0.82902 16.5146 0.969672 16.6552C1.11032 16.7959 1.30109 16.8749 1.5 16.8749H3.03C3.11177 17.4451 3.3795 17.9724 3.79163 18.3749H0.750002V19.1249H23.25V18.3749H20.2084C20.6205 17.9724 20.8882 17.4451 20.97 16.8749H22.5C22.6989 16.8749 22.8897 16.7959 23.0303 16.6552C23.171 16.5146 23.25 16.3238 23.25 16.1249V14.6249C23.25 14.426 23.171 14.2352 23.0303 14.0946C22.8897 13.9539 22.6989 13.8749 22.5 13.8749ZM16.5416 14.6249C16.1295 15.0274 15.8618 15.5547 15.78 16.1249H8.22C8.13823 15.5547 7.8705 15.0274 7.45838 14.6249H16.5416ZM17.7394 3.43826L18.3116 4.01239L12.2805 10.978C12.1745 10.6208 11.981 10.2957 11.7176 10.0322C11.4541 9.76867 11.1291 9.57509 10.7719 9.46901L17.7394 3.43826ZM9.97013 10.1335C10.0215 10.1276 10.0733 10.1247 10.125 10.1249C10.3222 10.1241 10.5176 10.1623 10.7 10.2374C10.8823 10.3126 11.048 10.423 11.1874 10.5625C11.3269 10.7019 11.4373 10.8676 11.5124 11.0499C11.5875 11.2323 11.6258 11.4277 11.625 11.6249V13.8749H8.625V11.6249C8.62389 11.2536 8.76102 10.8952 9.00968 10.6195C9.25834 10.3438 9.60072 10.1706 9.97013 10.1335ZM1.5 12.7589L2.628 12.7499L2.622 11.9999L1.5 12.0089V11.3309L3.2415 7.49989H7.875V13.8749H1.5V12.7589ZM1.5 14.6249H3.79163C3.3795 15.0274 3.11177 15.5547 3.03 16.1249H1.5V14.6249ZM3.75 16.4999C3.75 16.129 3.85997 15.7665 4.066 15.4582C4.27202 15.1498 4.56486 14.9095 4.90747 14.7676C5.25008 14.6257 5.62708 14.5886 5.9908 14.6609C6.35451 14.7333 6.6886 14.9118 6.95083 15.1741C7.21305 15.4363 7.39163 15.7704 7.46397 16.1341C7.53632 16.4978 7.49919 16.8748 7.35728 17.2174C7.21536 17.56 6.97504 17.8529 6.6667 18.0589C6.35835 18.2649 5.99584 18.3749 5.625 18.3749C5.1279 18.3743 4.65134 18.1766 4.29983 17.8251C3.94833 17.4736 3.7506 16.997 3.75 16.4999ZM7.45838 18.3749C7.8705 17.9724 8.13823 17.4451 8.22 16.8749H15.78C15.8618 17.4451 16.1295 17.9724 16.5416 18.3749H7.45838ZM18.375 18.3749C18.0042 18.3749 17.6416 18.2649 17.3333 18.0589C17.025 17.8529 16.7846 17.56 16.6427 17.2174C16.5008 16.8748 16.4637 16.4978 16.536 16.1341C16.6084 15.7704 16.787 15.4363 17.0492 15.1741C17.3114 14.9118 17.6455 14.7333 18.0092 14.6609C18.3729 14.5886 18.7499 14.6257 19.0925 14.7676C19.4351 14.9095 19.728 15.1498 19.934 15.4582C20.14 15.7665 20.25 16.129 20.25 16.4999C20.2494 16.997 20.0517 17.4736 19.7002 17.8251C19.3487 18.1766 18.8721 18.3743 18.375 18.3749ZM22.5 16.1249H20.97C20.8882 15.5547 20.6205 15.0274 20.2084 14.6249H22.5V16.1249Z" fill="white"/>
<path d="M7.125 10.6875V8.4375C7.125 8.28832 7.06574 8.14524 6.96025 8.03975C6.85476 7.93426 6.71169 7.875 6.5625 7.875H4.24875C4.13865 7.87498 4.03097 7.90726 3.93905 7.96785C3.84712 8.02845 3.775 8.11468 3.73163 8.21588L2.7675 10.4659C2.73083 10.5514 2.71596 10.6447 2.72422 10.7374C2.73248 10.8301 2.76361 10.9193 2.81482 10.997C2.86603 11.0747 2.93573 11.1385 3.01765 11.1827C3.09958 11.2268 3.19118 11.25 3.28425 11.25H6.5625C6.71169 11.25 6.85476 11.1907 6.96025 11.0852C7.06574 10.9798 7.125 10.8367 7.125 10.6875ZM6.375 10.5H3.56888L4.37213 8.625H6.375V10.5Z" fill="white"/>
<path d="M7.125 12H6.375V13.125H7.125V12Z" fill="white"/>
<path d="M5.625 15.375C5.4025 15.375 5.18499 15.441 4.99998 15.5646C4.81498 15.6882 4.67078 15.8639 4.58564 16.0695C4.50049 16.275 4.47821 16.5012 4.52162 16.7195C4.56503 16.9377 4.67217 17.1382 4.82951 17.2955C4.98684 17.4528 5.1873 17.56 5.40552 17.6034C5.62375 17.6468 5.84995 17.6245 6.05552 17.5394C6.26109 17.4542 6.43679 17.31 6.5604 17.125C6.68402 16.94 6.75 16.7225 6.75 16.5C6.75 16.2016 6.63147 15.9155 6.4205 15.7045C6.20952 15.4935 5.92337 15.375 5.625 15.375ZM5.625 16.875C5.55083 16.875 5.47833 16.853 5.41666 16.8118C5.35499 16.7706 5.30693 16.712 5.27855 16.6435C5.25016 16.575 5.24274 16.4996 5.25721 16.4268C5.27168 16.3541 5.30739 16.2873 5.35984 16.2348C5.41228 16.1824 5.4791 16.1467 5.55184 16.1322C5.62458 16.1177 5.69998 16.1252 5.76851 16.1535C5.83703 16.1819 5.8956 16.23 5.9368 16.2917C5.97801 16.3533 6 16.4258 6 16.5C6 16.5995 5.96049 16.6948 5.89017 16.7652C5.81984 16.8355 5.72446 16.875 5.625 16.875ZM18.375 15.375C18.1525 15.375 17.935 15.441 17.75 15.5646C17.565 15.6882 17.4208 15.8639 17.3356 16.0695C17.2505 16.275 17.2282 16.5012 17.2716 16.7195C17.315 16.9377 17.4222 17.1382 17.5795 17.2955C17.7368 17.4528 17.9373 17.56 18.1555 17.6034C18.3738 17.6468 18.6 17.6245 18.8055 17.5394C19.0111 17.4542 19.1868 17.31 19.3104 17.125C19.434 16.94 19.5 16.7225 19.5 16.5C19.5 16.2016 19.3815 15.9155 19.1705 15.7045C18.9595 15.4935 18.6734 15.375 18.375 15.375ZM18.375 16.875C18.3008 16.875 18.2283 16.853 18.1667 16.8118C18.105 16.7706 18.0569 16.712 18.0285 16.6435C18.0002 16.575 17.9927 16.4996 18.0072 16.4268C18.0217 16.3541 18.0574 16.2873 18.1098 16.2348C18.1623 16.1824 18.2291 16.1467 18.3018 16.1322C18.3746 16.1177 18.45 16.1252 18.5185 16.1535C18.587 16.1819 18.6456 16.23 18.6868 16.2917C18.728 16.3533 18.75 16.4258 18.75 16.5C18.75 16.5995 18.7105 16.6948 18.6402 16.7652C18.5698 16.8355 18.4745 16.875 18.375 16.875ZM10.125 12.75C10.3475 12.75 10.565 12.684 10.75 12.5604C10.935 12.4368 11.0792 12.2611 11.1644 12.0555C11.2495 11.85 11.2718 11.6238 11.2284 11.4055C11.185 11.1873 11.0778 10.9868 10.9205 10.8295C10.7632 10.6722 10.5627 10.565 10.3445 10.5216C10.1262 10.4782 9.90005 10.5005 9.69448 10.5856C9.48891 10.6708 9.31321 10.815 9.1896 11C9.06598 11.185 9 11.4025 9 11.625C9 11.9234 9.11853 12.2095 9.32951 12.4205C9.54048 12.6315 9.82663 12.75 10.125 12.75ZM10.125 11.25C10.1992 11.25 10.2717 11.272 10.3333 11.3132C10.395 11.3544 10.4431 11.413 10.4715 11.4815C10.4998 11.55 10.5073 11.6254 10.4928 11.6982C10.4783 11.7709 10.4426 11.8377 10.3902 11.8902C10.3377 11.9426 10.2709 11.9783 10.1982 11.9928C10.1254 12.0073 10.05 11.9998 9.98149 11.9715C9.91297 11.9431 9.8544 11.895 9.8132 11.8333C9.77199 11.7717 9.75 11.6992 9.75 11.625C9.75 11.5255 9.78951 11.4302 9.85984 11.3598C9.93016 11.2895 10.0255 11.25 10.125 11.25Z" fill="white"/>
</svg>
